<svg xmlns="http://www.w3.org/2000/svg" version="1.1" xmlns:xlink="http://www.w3.org/1999/xlink" width="559.97394" height="552.5"><svg version="1.1" id="SvgjsSvg1018" width="559.97394" height="552.5" viewBox="0 0 559.97394 552.5" sodipodi:docname="logo-idea2.svg" inkscape:version="1.4 (e7c3feb1, 2024-10-09)" xmlns:inkscape="http://www.inkscape.org/namespaces/inkscape" xmlns:sodipodi="http://sodipodi.sourceforge.net/DTD/sodipodi-0.dtd" xmlns="http://www.w3.org/2000/svg" xmlns:svg="http://www.w3.org/2000/svg">
  <sodipodi:namedview id="SvgjsSodipodi:namedview1017" pagecolor="#ffffff" bordercolor="#000000" borderopacity="0.25" inkscape:showpageshadow="2" inkscape:pageopacity="0.0" inkscape:pagecheckerboard="0" inkscape:deskcolor="#d1d1d1" showgrid="false" showguides="false" inkscape:zoom="0.80465713" inkscape:cx="124.89792" inkscape:cy="215.61979" inkscape:window-width="1728" inkscape:window-height="966" inkscape:window-x="0" inkscape:window-y="38" inkscape:window-maximized="1" inkscape:current-layer="svg1"></sodipodi:namedview>
  <defs id="SvgjsDefs1016"></defs>
  <path style="display:inline" d="m 233.21516,0.1154379 -2.47656,2.5 c -1.90495,1.92325 -3.64613,6.8779101 -7.54883,21.4765601 -2.79018,10.43711 -5.4011,19.30344 -5.80078,19.70312 -0.39968,0.39968 -6.03522,2.55769 -12.52344,4.79492 -6.48821,2.23724 -17.47074,6.50327 -24.40625,9.48047 l -12.60938,5.41211 -16.02929,-11.55664 c -8.81567,-6.35684 -17.20892,-11.89657 -18.65235,-12.31054 -1.50287,-0.43101 -3.7615,-0.27207 -5.2832,0.37304 -4.08357,1.7312 -67.68007,59.402752 -68.82423,62.412122 -1.39537,3.67009 -0.96054,4.9121 8.73829,24.94726 l 8.60156,17.76758 -2.64258,4.5 c -4.42286,7.53009 -12.15622,23.05747 -15.53711,31.19922 -3.16801,7.6291 -3.23556,7.70426 -7.375,8.24805 -2.29772,0.30185 -11.3188,1.46435 -20.04883,2.58203 -8.73004,1.11768 -16.65479,2.45006 -17.60937,2.96093 -2.62323,1.40391 -4.9099305,5.42366 -5.5117205,9.68946 -0.70448,4.9938 -8.20698995,66.98268 -9.08399,75.05468 -0.84982,7.8218 0.49504005,11.31232 5.38477,13.96485 2.03021,1.10133 11.1523905,4.8074 20.2714805,8.23437 l 16.58008,6.23047 2.70313,13.66797 c 1.4866,7.51733 4.28308,18.2925 6.21289,23.94531 1.92981,5.65282 3.17904,10.82782 2.77734,11.5 -0.40169,0.67219 -6.15722,7.44767 -12.79102,15.05664 -6.63381,7.60897 -12.60738,14.80897 -13.27539,16 -2.84915,5.0799 -2.04965,6.50934 24.29102,43.3711 14.06776,19.6868 26.49315,36.58242 27.61133,37.54492 1.11817,0.9625 3.44746,1.75 5.17578,1.75 1.72833,0 11.46543,-3.53487 21.63868,-7.85547 l 18.49609,-7.85547 5.82032,4.83985 c 3.20048,2.662 12.36178,9.23447 20.35937,14.60546 l 14.54102,9.76563 -0.71289,19.09961 c -0.61881,16.5591 -0.49891,19.5148 0.90039,22.2207 0.88768,1.7166 2.54513,3.61922 3.68359,4.22852 1.13847,0.6092 18.79494,5.98014 39.23828,11.93554 20.44334,5.95541 38.75715,10.86988 40.69727,10.92188 1.94012,0.0515 4.48779,-0.57724 5.66015,-1.39844 1.17236,-0.8211 6.71095,-8.9211 12.3086,-18 8.43059,-13.6735 10.57663,-16.50781 12.49803,-16.50781 1.9209,0 3.9071,2.6218 11.5586,15.25 11.01,18.1713 13.18007,20.75 17.45117,20.75 4.4837,0 76.46469,-20.30752 81.46289,-22.98242 4.6814,-2.5055 5.23568,-5.76188 4.48828,-26.36328 l -0.69531,-19.1543 12.87109,-8.72461 c 7.0786,-4.7983 15.51806,-10.8733 18.75586,-13.5 3.2377,-2.6268 6.6127,-5.28641 7.5,-5.91211 1.2949,-0.913 5.06558,0.34319 19.11328,6.37109 9.625,4.1301 19.3281,7.7282 21.5625,7.9961 3.5069,0.4206 4.42863,0.0968 6.73633,-2.3711 2.3927,-2.5589 35.06412,-48.23687 47.01172,-65.72656 6.9799,-10.21777 6.78865,-11.14367 -5.06055,-24.66992 -5.3625,-6.12145 -11.65643,-13.47232 -13.98633,-16.33398 l -4.23437,-5.20313 3.57812,-9.96289 c 3.8761,-10.79153 8.36977,-29.06244 8.38477,-34.08984 0.005,-1.72016 0.57031,-3.55966 1.25781,-4.08594 0.6875,-0.52628 9.42397,-3.99714 19.41407,-7.71484 21.2271,-7.89938 22.74335,-9.03381 22.46875,-16.79297 -0.3192,-9.01849 -9.97104,-82.61214 -11.11524,-84.75 -2.0968,-3.91791 -5.37298,-4.90022 -23.51758,-7.05469 -9.9,-1.17552 -18.91736,-2.30967 -20.03906,-2.52149 -1.4969,-0.28266 -2.92419,-2.59011 -5.36719,-8.66992 -2.8626,-7.12362 -10.542,-22.117 -16.5332,-32.2832 l -1.76758,-3 9.10352,-18.43945 c 5.4032,-10.94463 9.10351,-19.6708 9.10351,-21.4668 0,-2.44081 -1.402,-4.38979 -7.25,-10.082042 -15.2431,-14.83719 -59.84265,-54.59674 -62.28515,-55.52539 -3.7022,-1.40756 -6.67971,0.14595 -24.72461,12.90235 l -15.75977,11.14062 -4.13867,-2.11133 c -5.4715,-2.79135 -29.891,-12.29092 -36.8457,-14.33398 -3.0229,-0.88801 -6.00852,-1.94541 -6.63672,-2.34961 -0.6282,-0.40421 -3.48526,-9.28437 -6.34766,-19.73437 -4.3206,-15.77392 -5.70045,-19.5093801 -8.12695,-22.0000001 l -2.92188,-3 h -44.95898 z m 45.85741,85.2070301 c 10.95046,0.006 21.93225,0.56963 29.0957,1.68945 20.1293,3.14669 36.7748,8.20011 54.5,16.544932 9.4528,4.45028 25.0108,13.6333 30.5,18.00195 l 2.5,1.99023 -51.75,51.78712 -51.75,51.7871 -0.002,11.37696 a 22.712008,22.711983 0 0 1 22.49414,-21.89649 22.712008,22.711983 0 0 1 22.71094,22.71289 22.712008,22.711983 0 0 1 -0.94727,3.53711 l 43.20313,-43.19531 c 41.6765,-41.66923 46.57804,-46.25733 48.08593,-45.00586 3.18981,2.6473 17.23795,24.91647 22.33985,35.41406 6.3782,13.12375 13.27257,33.61405 16.16797,48.04883 2.7904,13.91122 3.76721,43.42538 1.97461,59.6582 -4.4184,40.01133 -22.45164,78.12184 -51.36914,108.56446 -25.1107,26.43501 -61.17941,46.21411 -98.65821,54.09961 -5.225,1.0993 -11.8625,2.30554 -14.75,2.68164 l -5.25,0.68359 v -36.90625 -36.44922 a 22.712008,22.711983 0 0 1 -20.71875,15.2793 22.712008,22.711983 0 0 1 -22.71288,-22.71289 22.712008,22.711983 0 0 1 22.71288,-22.71289 22.712008,22.711983 0 0 1 22.71094,22.71289 22.712008,22.711983 0 0 1 -1.82031,6.78906 l 15.07812,-16.12305 c 8.3875,-8.96978 16.15,-17.48066 17.25,-18.91406 1.9337,-2.51979 2.00939,-4.36541 2.27539,-55.6582 l 0.2461,-47.29688 a 22.712008,22.711983 0 0 1 -18.5293,10.2168 22.712008,22.711983 0 0 1 -22.49414,-21.89649 l -0.008,42.48829 v 55.49609 l -7.57227,8.5 h -0.002 c -4.1649,4.675 -7.98704,8.92672 -8.49414,9.44922 -0.5629,0.58007 -0.94919,-22.00507 -0.99219,-58 -0.0387,-32.4225 -0.42016,-59.84446 -0.84766,-60.93945 -0.4275,-1.09498 -25.82715,-26.96998 -56.44335,-57.5 l -55.66572,-55.50977 5.76367,-4.21484 c 21.61502,-15.80522 52.72394,-28.254492 82.26367,-32.921882 7.03441,-1.11149 17.95383,-1.66269 28.90429,-1.65625 z m -148.52147,67.208992 37.55859,37.34765 c 20.65756,20.54076 43.97109,43.33608 51.80859,50.65625 l 14.25,13.3086 v 61.95117 c 0,44.98475 0.31797,62.55066 1.15821,64.13672 0.63644,1.20134 5.81144,7.31939 11.5,13.5957 l 10.34179,11.41016 v 29.33984 29.33789 l -3.25,-0.084 c -1.7875,-0.0464 -6.78503,-0.8339 -11.10547,-1.75 l -7.85351,-1.666 0.14648,-16.73633 c 0.0864,-9.8038 -0.3221,-18.5027 -0.98633,-21 -0.97217,-3.655 -3.91083,-6.97408 -20.59765,-23.26367 l -19.46289,-19 -0.34375,-21.71484 c -0.0664,-4.18832 -0.0129,-4.96812 -0.0156,-7.74219 a 22.712008,22.711983 0 0 1 -12.09179,3.77734 22.712008,22.711983 0 0 1 -12.4668,-4.15429 c 0.0781,3.81007 0.15996,7.38518 0.2168,12.08398 0.2763,22.84335 0.52414,26.17871 2.19921,29.55078 1.03851,2.09062 9.90312,11.71946 19.69922,21.39649 l 17.81055,17.59375 -0.58789,10.10546 c -0.32332,5.5573 -0.68988,10.23178 -0.81641,10.38868 -0.57381,0.7116 -19.20113,-8.0848 -27.65234,-13.0586 -38.02119,-22.37665 -67.61737,-58.56231 -82.22852,-100.53906 -14.27556,-41.01265 -14.0601,-85.18742 0.61915,-127.15039 6.36763,-18.20288 14.19665,-33.03036 26.57421,-50.32813 z" id="SvgjsPath1015"></path>
  <ellipse style="fill:#ffffff;fill-opacity:1;stroke:#000000;stroke-width:17.2863;stroke-dasharray:none;stroke-opacity:1" id="SvgjsEllipse1014" cx="315.32367" cy="238.4227" rx="21.356871" ry="21.356855"></ellipse>
  <ellipse style="fill:#ffffff;fill-opacity:1;stroke:#000000;stroke-width:17.2863;stroke-dasharray:none;stroke-opacity:1" id="SvgjsEllipse1013" cx="277.23703" cy="385.34772" rx="21.356871" ry="21.356855"></ellipse>
  <ellipse style="fill:#ffffff;fill-opacity:1;stroke:#000000;stroke-width:17.2863;stroke-dasharray:none;stroke-opacity:1" id="SvgjsEllipse1012" cx="181.46651" cy="335.53073" rx="21.356871" ry="21.356855"></ellipse>
</svg><style>@media (prefers-color-scheme: light) { :root { filter: none; } }
@media (prefers-color-scheme: dark) { :root { filter: none; } }
</style></svg>